<svg width="150" height="150" viewBox="0 0 150 150" fill="none" xmlns="http://www.w3.org/2000/svg">
<path opacity="0.6" d="M116 4H34C17.4315 4 4 17.4315 4 34V116C4 132.569 17.4315 146 34 146H116C132.569 146 146 132.569 146 116V34C146 17.4315 132.569 4 116 4Z" stroke="white" stroke-width="6"/>
<path d="M129.5 28.5C129.5 24.0817 125.918 20.5 121.5 20.5C117.082 20.5 113.5 24.0817 113.5 28.5C113.5 32.9183 117.082 36.5 121.5 36.5C125.918 36.5 129.5 32.9183 129.5 28.5Z" fill="white" stroke="white"/>
<path d="M101.324 119.815C110.072 114.764 105.45 90.3815 91.0012 65.3548C76.5521 40.3282 57.747 24.1345 48.9989 29.1853C40.2507 34.236 44.8723 58.6185 59.3214 83.6452C73.7706 108.672 92.5757 124.865 101.324 119.815Z" stroke="white" stroke-width="5"/>
<path d="M48.5841 120.077C57.3322 125.127 76.1373 108.934 90.5865 83.907C105.036 58.8803 109.657 34.4978 100.909 29.4471C92.1609 24.3963 73.3558 40.59 58.9067 65.6166C44.4575 90.6433 39.8359 115.026 48.5841 120.077Z" stroke="white" stroke-width="5"/>
<path d="M22.5 74C22.5 84.2173 45.7812 92.5 74.5 92.5C103.219 92.5 126.5 84.2173 126.5 74C126.5 63.7827 103.219 55.5 74.5 55.5C45.7812 55.5 22.5 63.7827 22.5 74Z" stroke="white" stroke-width="5"/>
<path d="M74.5 85C79.7467 85 84 80.7467 84 75.5C84 70.2533 79.7467 66 74.5 66C69.2533 66 65 70.2533 65 75.5C65 80.7467 69.2533 85 74.5 85Z" fill="white" stroke="white"/>
</svg>
